<svg width="249" height="226" viewBox="0 0 249 226" fill="none" xmlns="http://www.w3.org/2000/svg">
<path d="M249 172.845H0V172.958H249V172.845Z" fill="#EBEBEB"/>
<path d="M224.05 180.117H207.556V180.231H224.05V180.117Z" fill="#EBEBEB"/>
<path d="M164.948 181.347H160.62V181.46H164.948V181.347Z" fill="#EBEBEB"/>
<path d="M207.058 175.923H197.502V176.036H207.058V175.923Z" fill="#EBEBEB"/>
<path d="M47.6337 176.682H26.1251V176.796H47.6337V176.682Z" fill="#EBEBEB"/>
<path d="M55.2232 176.682H52.0709V176.796H55.2232V176.682Z" fill="#EBEBEB"/>
<path d="M112.125 178.59H65.472V178.703H112.125V178.59Z" fill="#EBEBEB"/>
<path d="M118.026 152.686H21.8672C21.1139 152.684 20.3919 152.412 19.8597 151.928C19.3275 151.444 19.0286 150.788 19.0286 150.105V27.4183C19.0351 26.7385 19.3369 26.0885 19.8684 25.6095C20.3999 25.1305 21.1182 24.8612 21.8672 24.86H118.026C118.78 24.86 119.503 25.1319 120.037 25.6159C120.57 26.1 120.87 26.7564 120.87 27.4409V150.105C120.87 150.789 120.57 151.446 120.037 151.93C119.503 152.414 118.78 152.686 118.026 152.686ZM21.8672 24.9504C21.1469 24.9516 20.4566 25.2121 19.9477 25.6748C19.4389 26.1375 19.1531 26.7646 19.1531 27.4183V150.105C19.1531 150.758 19.4389 151.385 19.9477 151.848C20.4566 152.311 21.1469 152.571 21.8672 152.573H118.026C118.747 152.571 119.438 152.311 119.947 151.848C120.457 151.386 120.744 150.759 120.745 150.105V27.4183C120.744 26.7642 120.457 26.1371 119.947 25.6746C119.438 25.212 118.747 24.9516 118.026 24.9504H21.8672Z" fill="#EBEBEB"/>
<path d="M225.748 152.686H129.585C128.831 152.684 128.108 152.412 127.575 151.928C127.042 151.445 126.742 150.789 126.741 150.105V27.4183C126.749 26.7381 127.052 26.0881 127.584 25.6092C128.116 25.1303 128.835 24.8612 129.585 24.86H225.748C226.497 24.8624 227.214 25.1322 227.744 25.6111C228.274 26.09 228.575 26.7393 228.582 27.4183V150.105C228.582 150.788 228.284 151.443 227.753 151.926C227.222 152.41 226.501 152.683 225.748 152.686ZM129.585 24.9504C128.864 24.9516 128.173 25.212 127.663 25.6746C127.154 26.1371 126.867 26.7642 126.866 27.4183V150.105C126.867 150.759 127.154 151.386 127.663 151.848C128.173 152.311 128.864 152.571 129.585 152.573H225.748C226.469 152.571 227.16 152.311 227.67 151.848C228.179 151.386 228.466 150.759 228.467 150.105V27.4183C228.466 26.7642 228.179 26.1371 227.67 25.6746C227.16 25.212 226.469 24.9516 225.748 24.9504H129.585Z" fill="#EBEBEB"/>
<path d="M193.573 143.23C208.752 143.23 221.057 134.641 221.057 124.047C221.057 113.452 208.752 104.864 193.573 104.864C178.393 104.864 166.088 113.452 166.088 124.047C166.088 134.641 178.393 143.23 193.573 143.23Z" fill="#EBEBEB"/>
<path d="M187.821 119.097C199.821 119.097 209.548 112.306 209.548 103.928C209.548 95.5507 199.821 88.7592 187.821 88.7592C175.821 88.7592 166.093 95.5507 166.093 103.928C166.093 112.306 175.821 119.097 187.821 119.097Z" fill="#EBEBEB"/>
<path d="M189.484 37.5567C189.484 37.5567 193.075 34.7407 188.413 34.0672C179.947 32.8423 172.293 36.6708 171.322 37.1815C172.318 35.4052 171.611 34.0175 166.506 34.5192C162.487 34.9034 151.696 39.776 151.696 39.776H204.444C211.73 33.8322 189.484 37.5567 189.484 37.5567Z" fill="#F0F0F0"/>
<path d="M47.4445 59.0628C47.4445 59.0628 50.4026 56.9746 47.8827 56.4774C43.316 55.5734 37.6687 58.4074 36.9267 58.7826C38.0572 57.4673 38.0472 56.4548 34.9347 56.8119C32.4447 57.0966 24.6759 60.7036 24.6759 60.7036H55.5121C61.5827 56.3011 47.4445 59.0628 47.4445 59.0628Z" fill="#F0F0F0"/>
<path d="M211.336 54.8909C211.336 54.8909 213.438 53.4083 211.65 53.0512C208.403 52.4094 204.389 54.4072 203.876 54.692C204.683 53.7564 204.673 53.0377 202.452 53.2908C200.699 53.4942 195.161 56.057 195.161 56.057H217.073C221.381 52.9292 211.336 54.8909 211.336 54.8909Z" fill="#F5F5F5"/>
<path d="M55.2232 162.245C63.3588 162.245 69.9541 157.642 69.9541 151.962C69.9541 146.283 63.3588 141.679 55.2232 141.679C47.0876 141.679 40.4924 146.283 40.4924 151.962C40.4924 157.642 47.0876 162.245 55.2232 162.245Z" fill="#EBEBEB"/>
<path d="M46.0302 154.263C35.2933 154.263 26.6082 162.58 26.6082 172.845H65.487C65.4721 162.58 56.772 154.263 46.0302 154.263Z" fill="#EBEBEB"/>
<path d="M142.229 76.8897H55.8955V172.845H142.229V76.8897Z" fill="#F0F0F0"/>
<path d="M193.109 76.8897H142.229V172.845H193.109V76.8897Z" fill="#E6E6E6"/>
<path d="M177.273 86.1331H158.055V119.446H177.273V86.1331Z" fill="#F5F5F5"/>
<path d="M125.212 81.812H105.994V101.899H125.212V81.812Z" fill="#F5F5F5"/>
<path d="M92.125 81.812H72.9072V101.899H92.125V81.812Z" fill="#F5F5F5"/>
<path d="M125.212 105.619H105.994V109.334H125.212V105.619Z" fill="#F5F5F5"/>
<path d="M92.125 105.619H72.9072V109.334H92.125V105.619Z" fill="#F5F5F5"/>
<path d="M193.109 131.08H142.229V172.845H193.109V131.08Z" fill="#F5F5F5"/>
<path d="M185.311 137.598H169.24V157.969H185.311V137.598Z" fill="#E6E6E6"/>
<path d="M166.093 137.598H150.022V157.969H166.093V137.598Z" fill="#E6E6E6"/>
<path d="M142.229 131.08H55.8955V172.845H142.229V131.08Z" fill="#FAFAFA"/>
<path d="M88.7984 136.504H69.9491V170.494H88.7984V136.504Z" fill="#E6E6E6"/>
<path d="M149.938 47.008H99.0621L142.229 76.8897H193.104L149.938 47.008Z" fill="#F0F0F0"/>
<path d="M89.5952 43.4417H75.4321V69.8566H89.5952V43.4417Z" fill="#EBEBEB"/>
<path d="M99.0621 47.008L55.8955 76.8897H142.229L99.0621 47.008Z" fill="#FAFAFA"/>
<path d="M99.0621 52.7574L64.2021 76.8897H133.922L99.0621 52.7574Z" fill="#F0F0F0"/>
<path d="M118.634 114.709H60.2032L47.0909 126.61V131.08H131.751V126.61L118.634 114.709Z" fill="#E6E6E6"/>
<path d="M193.109 168.144H47.0909V172.845H193.109V168.144Z" fill="#E6E6E6"/>
<path d="M142.229 151.962H84.0524V168.144H142.229V151.962Z" fill="#F0F0F0"/>
<path d="M119.022 131.08H115.591V168.144H119.022V131.08Z" fill="#E6E6E6"/>
<path d="M53.1764 131.08H49.7452V168.144H53.1764V131.08Z" fill="#E6E6E6"/>
<path d="M124.5 193.257C177.827 193.257 221.057 190.966 221.057 188.14C221.057 185.315 177.827 183.024 124.5 183.024C71.1729 183.024 27.9428 185.315 27.9428 188.14C27.9428 190.966 71.1729 193.257 124.5 193.257Z" fill="#F5F5F5"/>
<path d="M143.085 104.344H136.158V189.496H143.085V104.344Z" fill="#1A237E"/>
<path opacity="0.3" d="M143.085 104.344H136.158V189.496H143.085V104.344Z" fill="white"/>
<path d="M150.013 104.344H143.085V189.496H150.013V104.344Z" fill="#1A237E"/>
<path opacity="0.5" d="M150.013 104.344H143.085V189.496H150.013V104.344Z" fill="white"/>
<path d="M199.608 109.194H145.361V115.183H199.608V109.194Z" fill="#1A237E"/>
<path opacity="0.3" d="M199.608 109.194H145.361V115.183H199.608V109.194Z" fill="white"/>
<path d="M204.374 109.194H199.608V115.183H204.374V109.194Z" fill="#1A237E"/>
<path opacity="0.5" d="M204.374 109.194H199.608V115.183H204.374V109.194Z" fill="white"/>
<path d="M195.276 115.183H154.241V150.792H195.276V115.183Z" fill="#1A237E"/>
<path opacity="0.2" d="M195.276 115.183H193.832V150.792H195.276V115.183Z" fill="black"/>
<path d="M161.516 122.709H167.99V124.359H164.156V125.715H167.433V127.265H164.156V130.402H161.526L161.516 122.709Z" fill="white"/>
<path d="M169.061 126.56C168.999 126.025 169.069 125.484 169.266 124.977C169.463 124.469 169.783 124.008 170.201 123.627C170.619 123.246 171.126 122.954 171.685 122.774C172.243 122.593 172.839 122.528 173.429 122.582C174.02 122.547 174.613 122.621 175.172 122.798C175.732 122.975 176.246 123.252 176.685 123.613C177.081 123.998 177.386 124.453 177.582 124.948C177.778 125.444 177.861 125.971 177.826 126.497C177.858 127.259 177.688 128.017 177.328 128.707C177.006 129.28 176.503 129.752 175.884 130.063C175.159 130.404 174.349 130.569 173.533 130.542C172.719 130.568 171.909 130.428 171.163 130.131C170.524 129.841 169.995 129.385 169.644 128.82C169.227 128.129 169.026 127.347 169.061 126.56ZM171.676 126.56C171.619 127.15 171.786 127.74 172.149 128.232C172.318 128.391 172.52 128.517 172.744 128.603C172.967 128.689 173.208 128.733 173.451 128.733C173.694 128.733 173.934 128.689 174.158 128.603C174.382 128.517 174.584 128.391 174.753 128.232C175.057 127.902 175.211 127.306 175.211 126.424C175.259 125.86 175.082 125.299 174.713 124.842C174.55 124.675 174.348 124.544 174.121 124.457C173.894 124.37 173.649 124.33 173.404 124.341C173.163 124.332 172.924 124.373 172.704 124.461C172.484 124.549 172.289 124.681 172.134 124.847C171.765 125.352 171.603 125.958 171.676 126.56Z" fill="white"/>
<path d="M179.28 130.388V122.704H183.638C184.262 122.684 184.886 122.748 185.49 122.894C185.911 123.015 186.275 123.262 186.521 123.595C186.793 123.961 186.93 124.396 186.914 124.838C186.931 125.211 186.835 125.58 186.637 125.907C186.438 126.234 186.145 126.505 185.789 126.691C185.503 126.836 185.194 126.938 184.873 126.994C185.112 127.058 185.341 127.154 185.55 127.279C185.707 127.397 185.847 127.532 185.968 127.681C186.107 127.83 186.23 127.99 186.337 128.16L187.602 130.384H184.648L183.264 128.043C183.145 127.82 182.975 127.623 182.766 127.464C182.579 127.347 182.356 127.286 182.129 127.288H181.895V130.402L179.28 130.388ZM181.904 125.823H183.01C183.244 125.806 183.475 125.772 183.702 125.719C183.872 125.688 184.023 125.601 184.126 125.475C184.237 125.347 184.295 125.187 184.29 125.023C184.296 124.916 184.276 124.809 184.231 124.71C184.186 124.611 184.118 124.522 184.031 124.449C183.732 124.285 183.382 124.215 183.035 124.25H181.885L181.904 125.823Z" fill="white"/>
<path d="M157.438 140.721L159.928 140.581C159.954 140.882 160.07 141.171 160.261 141.417C160.4 141.57 160.576 141.691 160.777 141.769C160.977 141.848 161.194 141.882 161.412 141.869C161.722 141.888 162.03 141.805 162.278 141.634C162.371 141.568 162.445 141.483 162.497 141.387C162.549 141.291 162.576 141.185 162.577 141.078C162.575 140.976 162.548 140.875 162.498 140.782C162.448 140.69 162.377 140.609 162.288 140.545C161.884 140.31 161.429 140.156 160.954 140.093C160.065 139.962 159.224 139.641 158.498 139.157C158.261 138.977 158.071 138.751 157.943 138.495C157.816 138.239 157.753 137.96 157.761 137.679C157.762 137.28 157.893 136.889 158.14 136.558C158.417 136.184 158.813 135.896 159.275 135.731C159.94 135.506 160.648 135.403 161.357 135.428C162.229 135.375 163.098 135.566 163.847 135.975C164.14 136.185 164.381 136.449 164.552 136.75C164.724 137.051 164.823 137.381 164.843 137.72L162.378 137.851C162.371 137.708 162.331 137.568 162.262 137.439C162.193 137.311 162.095 137.197 161.975 137.104C161.855 137.011 161.715 136.941 161.564 136.9C161.413 136.858 161.255 136.845 161.098 136.861C160.853 136.845 160.61 136.907 160.411 137.037C160.338 137.087 160.279 137.151 160.238 137.225C160.198 137.298 160.177 137.38 160.177 137.462C160.181 137.527 160.201 137.589 160.234 137.646C160.268 137.703 160.315 137.753 160.371 137.792C160.637 137.943 160.936 138.04 161.247 138.077C162.093 138.213 162.917 138.441 163.703 138.755C164.143 138.94 164.516 139.234 164.778 139.605C165.006 139.947 165.124 140.34 165.117 140.739C165.117 141.221 164.962 141.693 164.669 142.095C164.36 142.516 163.922 142.844 163.409 143.04C162.761 143.271 162.068 143.381 161.372 143.361C159.933 143.361 158.937 143.112 158.384 142.606C157.83 142.101 157.495 141.432 157.438 140.721Z" fill="white"/>
<path d="M171.631 141.996H168.643L168.229 143.261H165.56L168.742 135.577H171.591L174.798 143.284H172.059L171.631 141.996ZM171.088 140.332L170.157 137.575L169.23 140.332H171.088Z" fill="white"/>
<path d="M175.625 135.6H178.239V141.39H182.318V143.284H175.625V135.6Z" fill="white"/>
<path d="M183.498 135.6H190.505V137.241H186.123V138.461H190.191V140.03H186.123V141.544H190.634V143.284H183.498V135.6Z" fill="white"/>
<path d="M109.431 68.1435L108.679 69.0475C108.435 69.3323 108.181 69.608 107.927 69.8837C107.429 70.4352 106.901 70.9685 106.373 71.5019C105.307 72.555 104.202 73.5901 102.991 74.5755C101.76 75.6123 100.447 76.5656 99.0622 77.4276C98.2997 77.9013 97.5046 78.33 96.6817 78.7113C95.712 79.1634 94.6852 79.5064 93.624 79.7328L93.4099 79.7735C93.2249 79.8113 93.0366 79.834 92.8471 79.8413C91.8166 79.8687 90.7933 79.6768 89.8591 79.2808C89.2204 79.0143 88.6214 78.6757 88.0763 78.2728C87.2505 77.6621 86.4977 76.9743 85.8303 76.2208C84.707 74.9455 83.7073 73.5844 82.8423 72.1528C82.0156 70.7968 81.2836 69.4136 80.6212 68.017C79.9496 66.6234 79.3579 65.1992 78.8483 63.7501C78.6952 63.2874 78.7256 62.7907 78.9341 62.3463C79.1427 61.9018 79.5163 61.5378 79.99 61.3175C80.4636 61.0972 81.0074 61.0345 81.5267 61.1403C82.046 61.2462 82.508 61.5139 82.8323 61.8969L82.8772 61.9511C83.7985 63.0766 84.7297 64.2563 85.666 65.3818C86.6022 66.5073 87.5384 67.6418 88.5046 68.6859C89.397 69.6948 90.3637 70.6477 91.3979 71.538C91.7909 71.8843 92.2271 72.1877 92.6977 72.442C92.867 72.5234 92.9965 72.555 92.9866 72.5324C92.9766 72.5098 92.7874 72.3968 92.3342 72.4059L91.5573 72.5144C91.9029 72.3602 92.2358 72.1834 92.5533 71.9855C92.9716 71.7234 93.4397 71.4205 93.9029 71.0815C94.366 70.7425 94.8441 70.3448 95.3122 69.938C95.7803 69.5312 96.2634 69.1153 96.7365 68.6814C97.6727 67.7774 98.614 66.8734 99.5303 65.9378L100.9 64.5094L102.214 63.1082L102.339 62.9772C103.107 62.1596 104.195 61.6463 105.374 61.5464C106.552 61.4466 107.727 61.7682 108.648 62.4428C109.569 63.1173 110.164 64.0915 110.305 65.1579C110.447 66.2244 110.124 67.2988 109.406 68.1526L109.431 68.1435Z" fill="#263238"/>
<path d="M82.7278 61.02C82.4439 58.986 78.3752 58.0458 78.3752 58.0458L75.9998 57.0921C75.6105 56.9346 75.1721 56.9082 74.7632 57.0175C74.3543 57.1268 74.0018 57.3648 73.7687 57.6888L72.5586 59.3702C72.4311 59.5512 72.3441 59.7533 72.3026 59.9649C72.2611 60.1764 72.2659 60.3933 72.3168 60.6032C72.3677 60.813 72.4636 61.0117 72.5991 61.188C72.7345 61.3642 72.9069 61.5145 73.1064 61.6302L75.2876 62.8687C75.6788 63.0879 76.1167 63.2296 76.5725 63.2845L78.425 63.5015C79.2035 63.5928 79.9945 63.4815 80.706 63.1807C81.4175 62.8798 82.0202 62.4017 82.4439 61.802L82.5584 61.6438C82.6904 61.459 82.7501 61.2393 82.7278 61.02Z" fill="#FFB573"/>
<path d="M110.471 141.291C116.945 122.637 121.97 99.9372 121.97 99.9372L102.473 98.197C102.473 98.197 101.194 127.405 99.9835 140.341C98.7186 153.788 93.7734 185.026 93.7734 185.026L99.6996 185.478C99.6996 185.478 109.874 157.992 110.471 141.291Z" fill="#263238"/>
<path d="M114.366 115.179L117.075 119.568C115.69 124.689 114.087 130.321 112.299 135.84C112.548 127.179 113.544 117.19 114.366 115.179Z" fill="black"/>
<path d="M85.8303 186.269C85.8303 186.269 94.2116 185.645 95.0134 184.565L99.5203 185.184L98.7783 189.496L95.9995 189.117L95.6409 188.665L94.869 188.968C92.628 188.656 86.652 187.761 85.3273 187.128C85.3201 186.957 85.3629 186.788 85.4512 186.637C85.5396 186.486 85.6704 186.359 85.8303 186.269Z" fill="#263238"/>
<path d="M129.42 140.048C129.077 120.869 130.416 108.051 128.618 98.5993L110.805 98.3552C110.805 98.3552 115.182 128.784 117.359 141.453C119.535 154.123 122.304 185.41 122.304 185.41H127.812C127.812 185.41 132.602 154.887 129.42 140.048Z" fill="#263238"/>
<path d="M116.906 188.055C116.906 188.055 122.189 186.305 122.882 185.13H127.443L127.1 189.496H123.375L122.971 189.094L122.234 189.496C119.958 189.496 117.872 189.415 116.477 188.95C116.461 188.78 116.492 188.609 116.567 188.453C116.641 188.297 116.758 188.16 116.906 188.055Z" fill="#263238"/>
<path d="M127.827 60.3284C121.527 59.6188 112.523 59.6866 106.487 60.6313C104.98 60.879 103.596 61.5509 102.532 62.552C101.469 63.553 100.779 64.8324 100.561 66.209C99.2913 74.4806 100.382 88.94 101.194 103.494C114.978 107.775 129.525 103.436 129.525 103.436C130.023 100.498 128.897 90.8791 128.135 85.7444C129.276 80.4424 131.686 74.3676 133.28 67.3254C133.476 66.5372 133.487 65.7204 133.313 64.9279C133.139 64.1355 132.783 63.3851 132.269 62.7254C131.755 62.0657 131.094 61.5115 130.328 61.0985C129.563 60.6856 128.711 60.4232 127.827 60.3284Z" fill="#263238"/>
<path d="M111.582 60.0753C110.825 60.7669 110.322 61.8562 110.053 63.2393C109.406 66.5977 110.138 71.7731 112.09 77.7033C113.957 72.9212 117.976 66.5932 120.446 62.9184C121.617 61.1782 122.438 60.0256 122.508 59.9262C118.907 59.1701 115.157 59.2213 111.582 60.0753Z" fill="#E0E0E0"/>
<path d="M121.592 49.4036L114.416 54.7462C115.347 56.9836 115.641 59.316 111.587 60.2154C110.591 61.4313 112.364 62.8235 114.037 63.4563C116.741 63.1534 120.556 62.3353 122.204 60.2923C121.681 58.6651 120.894 52.7168 121.592 49.4036Z" fill="#FFB573"/>
<path d="M112.324 62.1093C112.627 62.8901 113.14 63.5895 113.818 64.1433C114.914 64.1433 116.512 63.0269 116.512 63.0269C116.512 63.0269 115.895 61.4494 115.018 61.1285C112.802 61.6257 112.324 62.1093 112.324 62.1093Z" fill="#1A237E"/>
<path d="M114.824 63.4608C114.654 63.3416 114.459 63.2553 114.251 63.2071C114.043 63.1589 113.826 63.1498 113.614 63.1806C112.179 65.0292 111.268 67.904 110.382 71.2216C110.807 73.4248 111.377 75.6028 112.09 77.744C112.889 75.7759 113.82 73.8543 114.879 71.99C114.469 69.1601 114.451 66.2949 114.824 63.4608Z" fill="#1A237E"/>
<path opacity="0.2" d="M118.599 51.632L114.42 54.7417C114.644 55.2605 114.811 55.7979 114.918 56.3463C116.537 56.4503 118.788 54.9632 118.902 53.6343C118.938 52.9556 118.835 52.2768 118.599 51.632Z" fill="black"/>
<path d="M111.457 40.0562C108.33 42.8541 110.382 47.3289 110.382 47.3289C110.382 47.3289 115.85 38.4742 111.457 40.0562Z" fill="#263238"/>
<path d="M122.618 45.765C121.965 49.833 121.811 52.2693 119.331 54.1858C115.601 57.0695 110.188 54.7236 109.48 50.5336C108.848 46.7594 110.023 40.7162 114.605 39.4506C115.619 39.1706 116.696 39.1289 117.733 39.3295C118.77 39.53 119.734 39.9662 120.535 40.5972C121.335 41.2282 121.946 42.0333 122.311 42.9372C122.675 43.841 122.781 44.814 122.618 45.765Z" fill="#FFB573"/>
<path d="M123.121 47.8578C119.749 48.486 118.773 46.1176 118.773 46.1176C119.456 46.2465 120.161 46.2465 120.845 46.1176C120.845 46.1176 118.574 44.0112 120.347 41.9727C119.42 41.0687 115.297 41.4574 113.375 41.9727C111.273 41.254 110.192 40.9196 109.072 38.655C110.108 38.8178 111.174 38.6982 112.135 38.3115C114.226 37.4392 111.089 36.7973 111.089 36.7973C113.494 35.944 116.101 35.6654 118.658 35.9882C123.539 36.612 124.296 37.9273 124.107 39.4189C126.661 39.3918 126.915 41.9727 126.915 41.9727C126.605 41.747 126.239 41.592 125.85 41.5207C125.994 42.3072 126.492 46.9221 123.121 47.8578Z" fill="#263238"/>
<path d="M123.414 39.7218C124.351 39.3376 124.634 37.3081 124.082 36.4583C126.587 38.872 124.779 39.8574 123.414 39.7218Z" fill="#263238"/>
<path d="M124.141 48.9335C123.933 49.3622 123.632 49.749 123.258 50.0717C122.884 50.3945 122.443 50.6467 121.96 50.8138C120.66 51.2658 119.884 50.2262 120.138 49.0601C120.367 48.0069 121.318 46.5153 122.672 46.5786C122.967 46.5961 123.253 46.68 123.504 46.8227C123.754 46.9654 123.962 47.1624 124.107 47.396C124.253 47.6296 124.333 47.8925 124.339 48.1609C124.344 48.4293 124.277 48.6948 124.141 48.9335Z" fill="#FFB573"/>
<path d="M116.303 45.9142C116.273 46.2486 116.049 46.5018 115.805 46.4837C115.561 46.4656 115.392 46.1763 115.426 45.8418C115.461 45.5074 115.675 45.2497 115.924 45.2723C116.173 45.2949 116.333 45.5797 116.303 45.9142Z" fill="#263238"/>
<path d="M111.896 45.8147C111.866 46.1492 111.647 46.4068 111.398 46.3842C111.149 46.3616 110.989 46.0769 111.019 45.7424C111.049 45.4079 111.268 45.1548 111.517 45.1729C111.766 45.191 111.926 45.4802 111.896 45.8147Z" fill="#263238"/>
<path d="M112.787 46.2667C112.787 46.2667 111.791 48.1244 110.765 48.9787C111.368 49.5844 112.498 49.4307 112.498 49.4307L112.787 46.2667Z" fill="#ED893E"/>
<path d="M117.374 44.9107C117.41 44.9177 117.447 44.9177 117.483 44.9107C117.51 44.9013 117.534 44.8871 117.555 44.8689C117.576 44.8507 117.592 44.829 117.603 44.8049C117.614 44.7809 117.62 44.755 117.62 44.729C117.62 44.7029 117.614 44.6771 117.603 44.6531C117.479 44.3562 117.279 44.0905 117.019 43.8782C116.759 43.6659 116.447 43.5132 116.109 43.4327C116.053 43.4233 115.995 43.4341 115.947 43.4628C115.9 43.4915 115.867 43.5358 115.855 43.5864C115.843 43.6379 115.854 43.6916 115.886 43.7356C115.918 43.7797 115.967 43.8105 116.024 43.8214C116.288 43.8888 116.531 44.0126 116.732 44.1824C116.933 44.3522 117.086 44.5632 117.179 44.7977C117.197 44.8314 117.224 44.86 117.258 44.88C117.293 44.9 117.333 44.9107 117.374 44.9107Z" fill="#263238"/>
<path d="M109.844 44.5401C109.878 44.5511 109.914 44.5544 109.95 44.5497C109.985 44.545 110.019 44.5324 110.048 44.513C110.261 44.3595 110.511 44.2544 110.778 44.2065C111.045 44.1585 111.32 44.1691 111.582 44.2372C111.609 44.2466 111.637 44.2509 111.666 44.25C111.695 44.2491 111.723 44.243 111.749 44.2321C111.775 44.2211 111.798 44.2055 111.817 44.1862C111.837 44.1669 111.851 44.1443 111.861 44.1197C111.88 44.0706 111.877 44.0164 111.853 43.9691C111.829 43.9217 111.785 43.8849 111.731 43.8666C111.402 43.7756 111.054 43.7581 110.716 43.8155C110.377 43.873 110.06 44.0037 109.789 44.1966C109.758 44.2181 109.734 44.2467 109.719 44.2794C109.705 44.3122 109.7 44.3479 109.706 44.3829C109.711 44.4179 109.727 44.4509 109.751 44.4785C109.775 44.5062 109.807 44.5274 109.844 44.5401Z" fill="#263238"/>
<path d="M122.508 59.9397C122.433 60.0392 121.617 61.1918 120.446 62.932C119.27 63.9195 117.827 64.6072 116.263 64.9253C116.492 64.2247 115.8 61.8517 115.033 61.1194C116.841 61.2144 119.331 60.9341 122.508 59.9397Z" fill="#FAFAFA"/>
<path d="M115.038 61.1285C114.21 61.4581 113.464 61.9363 112.846 62.5345C112.227 63.1326 111.748 63.8383 111.437 64.6089C111.118 64.4821 110.832 64.2959 110.597 64.0623C110.362 63.8288 110.183 63.553 110.073 63.2529C110.342 61.8562 110.845 60.7669 111.602 60.0889C112.005 60.568 113.146 61.02 115.038 61.1285Z" fill="#FAFAFA"/>
<path d="M133.295 64.3241C133.663 65.0518 133.972 65.6801 134.291 66.3898C134.609 67.0994 134.888 67.7458 135.177 68.4509C135.735 69.834 136.258 71.2352 136.716 72.6816C137.198 74.153 137.594 75.6467 137.901 77.1564C138.061 77.9338 138.195 78.7384 138.285 79.5882C138.38 80.5184 138.391 81.4541 138.319 82.386C138.101 84.2627 137.458 86.0784 136.432 87.7196C135.579 89.1293 134.578 90.4613 133.444 91.6972C132.377 92.8676 131.231 93.9771 130.013 95.0194C128.807 96.0554 127.525 97.0173 126.178 97.8987C125.744 98.18 125.214 98.3138 124.682 98.2767C124.15 98.2397 123.65 98.0341 123.268 97.696C122.886 97.3579 122.647 96.9087 122.592 96.4269C122.538 95.9451 122.672 95.4613 122.971 95.0601L123.046 94.9652L124.296 93.2973C124.719 92.7368 125.122 92.1628 125.526 91.5933C126.318 90.4588 127.09 89.3333 127.752 88.1762C128.411 87.0973 128.979 85.9747 129.45 84.8178C129.657 84.311 129.823 83.7914 129.948 83.2629C130.051 82.8586 130.092 82.4435 130.073 82.029C130.036 81.5471 129.961 81.0683 129.849 80.5961C129.729 80.0447 129.585 79.4571 129.405 78.8559C129.037 77.6536 128.599 76.4061 128.12 75.154C127.642 73.902 127.124 72.6409 126.592 71.3798L124.978 67.6328L124.938 67.5469C124.513 66.5477 124.532 65.4374 124.992 64.4507C125.452 63.4641 126.316 62.6784 127.403 62.2599C128.489 61.8414 129.713 61.8227 130.814 62.208C131.915 62.5932 132.809 63.352 133.305 64.3241H133.295Z" fill="#263238"/>
<path d="M106.597 85.6224C104.597 87.0332 103.25 89.0717 102.82 91.3376C102.391 93.6035 102.911 95.9333 104.277 97.8695C105.643 99.8057 107.757 101.209 110.204 101.803C112.651 102.397 115.254 102.139 117.503 101.081L118.748 102.527L118.519 103.431L121.163 106.518L122.608 106.545L122.214 108.069L127.403 114.125L130.192 114.171L131.128 115.269L130.665 117.077L134.106 121.091L137.025 121.141L137.523 118.297L120.745 98.7213C122.318 96.9637 123.122 94.7422 123.005 92.4806C122.889 90.219 121.859 88.0755 120.112 86.4589C118.366 84.8424 116.025 83.866 113.536 83.7158C111.047 83.5657 108.584 84.2524 106.617 85.645L106.597 85.6224ZM110.89 90.6305C110.487 90.9162 109.999 91.0869 109.489 91.1211C108.98 91.1553 108.47 91.0515 108.025 90.8227C107.58 90.594 107.22 90.2506 106.99 89.8361C106.76 89.4215 106.671 88.9544 106.734 88.4938C106.797 88.0332 107.008 87.5999 107.343 87.2486C107.677 86.8973 108.118 86.6439 108.611 86.5203C109.104 86.3968 109.626 86.4088 110.111 86.5547C110.597 86.7006 111.024 86.9738 111.338 87.34C111.759 87.8304 111.948 88.4524 111.864 89.0694C111.78 89.6864 111.43 90.2479 110.89 90.6305Z" fill="#1A237E"/>
<path d="M126.801 97.0082C126.735 96.79 126.585 96.6007 126.377 96.4749L124.62 95.372C124.451 95.2658 124.252 95.2049 124.047 95.1961C123.842 95.1873 123.638 95.231 123.459 95.3223L121.881 96.1404C120.346 96.9289 119.016 98.008 117.981 99.3044L117.638 99.7564C117.498 99.9328 117.399 100.133 117.346 100.344C117.293 100.556 117.286 100.775 117.328 100.989C117.369 101.203 117.457 101.407 117.586 101.59C117.715 101.772 117.884 101.93 118.081 102.053L119.903 103.192C120.255 103.411 120.681 103.509 121.105 103.469C121.529 103.43 121.924 103.254 122.219 102.975L124.002 101.248C124.002 101.248 127.388 98.988 126.801 97.0082Z" fill="#FFB573"/>
<path d="M123.559 94.468C122.779 94.7675 122.053 95.1729 121.407 95.6703C121.636 96.9404 125.536 99.0558 126.851 99.0829C127.383 98.6309 128.086 96.7732 128.086 96.7732C126.612 96.1946 124.624 94.92 123.559 94.468Z" fill="#E0E0E0"/>
<path d="M83.664 62.828C83.6814 62.0639 83.5705 61.3019 83.3353 60.568C81.9658 60.2335 78.2458 62.602 77.683 63.6868C77.9271 64.3151 79.4958 65.6485 79.4958 65.6485C80.676 64.636 82.7676 63.506 83.664 62.828Z" fill="#E0E0E0"/>
<path d="M121.98 185.551L128.096 185.709L128.733 182.554L121.577 182.942L121.98 185.551Z" fill="#1A237E"/>
<path d="M93.4846 184.986L100.023 185.903L101.129 183.282L93.883 181.794L93.4846 184.986Z" fill="#1A237E"/>
<path d="M114.201 50.624C113.965 50.6332 113.728 50.6226 113.494 50.5924C113.479 50.5902 113.464 50.5852 113.45 50.5775C113.437 50.5699 113.425 50.5598 113.416 50.5479C113.407 50.536 113.401 50.5226 113.398 50.5084C113.396 50.4943 113.396 50.4798 113.4 50.4658C113.407 50.4355 113.426 50.4086 113.453 50.3903C113.481 50.372 113.515 50.3635 113.549 50.3664C114.076 50.4374 114.615 50.3991 115.124 50.2543C115.633 50.1095 116.099 49.8619 116.487 49.5302C116.511 49.5092 116.543 49.4974 116.577 49.4974C116.61 49.4974 116.642 49.5092 116.666 49.5302C116.689 49.5513 116.702 49.5797 116.702 49.6093C116.702 49.6388 116.689 49.6672 116.666 49.6884C116.001 50.2666 115.122 50.6 114.201 50.624Z" fill="#263238"/>
<path d="M97.0652 34.1034L82.0007 33.005L69.2071 27.242L55.1834 31.0479L53.1615 53.8965L95.0433 56.952L97.0652 34.1034Z" fill="#1A237E"/>
<path d="M48.8239 56.1158L42.1956 55.6321L43.0272 46.2486L43.819 46.3074L43.0521 54.9722L48.8887 55.3971L48.8239 56.1158Z" fill="#1A237E"/>
<path d="M54.7153 53.8061H53.9185V58.5069H54.7153V53.8061Z" fill="#1A237E"/>
<path d="M55.0987 45.2588H45.5521V53.675H55.0987V45.2588Z" fill="#1A237E"/>
<path opacity="0.2" d="M54.7103 54.0095L63.0568 54.6197L64.0677 43.1931L55.4523 45.6158L54.7103 54.0095Z" fill="black"/>
<path opacity="0.2" d="M96.0791 33.5203H80.9648V56.4412H96.0791V33.5203Z" fill="black"/>
<path d="M84.2716 28.3404L69.2071 27.242L82.0007 33.005L97.0652 34.1034L84.2716 28.3404Z" fill="#263238"/>
<path d="M97.0652 34.8268H97.0005L81.936 33.7285C81.8354 33.7188 81.7375 33.6928 81.6471 33.6516L68.8535 27.8886C68.6878 27.8139 68.5558 27.6891 68.4804 27.5357C68.405 27.3823 68.3908 27.2098 68.4402 27.0479C68.4911 26.8866 68.6014 26.7461 68.7528 26.6498C68.9042 26.5536 69.0874 26.5074 69.2718 26.5191L84.3363 27.6174C84.4385 27.627 84.538 27.653 84.6302 27.6943L97.4188 33.4482C97.5713 33.5245 97.692 33.644 97.7626 33.7885C97.8331 33.9329 97.8496 34.0944 97.8095 34.2481C97.7694 34.4019 97.6749 34.5395 97.5405 34.6399C97.4061 34.7404 97.2392 34.7981 97.0652 34.8042V34.8268ZM82.2148 32.2956L93.0115 33.0866L84.0475 29.0503L73.2509 28.2593L82.2148 32.2956Z" fill="#263238"/>
<path d="M54.5559 42.5016L64.0677 43.1931L55.4523 45.6158L45.9405 44.9243L54.5559 42.5016Z" fill="#263238"/>
<path d="M55.4523 46.0769H55.4125L45.8957 45.3808C45.7788 45.3728 45.6687 45.3276 45.5849 45.2532C45.5011 45.1788 45.4489 45.0799 45.4375 44.974C45.4257 44.8655 45.4576 44.7568 45.5271 44.6679C45.5967 44.579 45.6993 44.516 45.816 44.4903L54.4314 42.0631C54.4939 42.0521 54.5581 42.0521 54.6206 42.0631L64.1324 42.7592C64.2495 42.766 64.3601 42.8101 64.4448 42.8837C64.5295 42.9573 64.5829 43.0557 64.5956 43.1615C64.6098 43.2676 64.5821 43.375 64.5174 43.4644C64.4526 43.5537 64.3551 43.6194 64.242 43.6496L55.6266 46.0723C55.5692 46.0831 55.5102 46.0847 55.4523 46.0769ZM48.5799 44.6576L55.3975 45.1548L61.4283 43.4598L54.6107 42.9626L48.5799 44.6576Z" fill="#263238"/>
<path d="M55.5668 31.7982C55.3782 31.7961 55.1964 31.7334 55.054 31.6211C54.9115 31.5088 54.8176 31.3543 54.7889 31.185C54.7602 31.0158 54.7986 30.8427 54.8973 30.6968C54.996 30.5508 55.1485 30.4414 55.3278 30.388L68.973 26.5505C69.0764 26.5003 69.1907 26.4714 69.3078 26.4659C69.4248 26.4604 69.5418 26.4784 69.6503 26.5187C69.7589 26.5589 69.8562 26.6204 69.9356 26.6988C70.0149 26.7771 70.0742 26.8704 70.1093 26.9719C70.1443 27.0734 70.1543 27.1807 70.1384 27.2862C70.1225 27.3916 70.0812 27.4925 70.0173 27.5818C69.9535 27.6711 69.8688 27.7464 69.7692 27.8026C69.6696 27.8587 69.5576 27.8942 69.4411 27.9065L55.8009 31.744C55.7264 31.7729 55.6475 31.7912 55.5668 31.7982Z" fill="#263238"/>
<path opacity="0.6" d="M73.7688 46.2034H68.3306V55.1847H73.7688V46.2034Z" fill="white"/>
<path d="M74.6253 34.8085H61.8367V41.7874H74.6253V34.8085Z" fill="white"/>
<path d="M67.7031 35.0345H62.3197V41.0913H67.7031V35.0345Z" fill="#1A237E"/>
<path d="M74.1423 35.5046H68.7589V41.5614H74.1423V35.5046Z" fill="#1A237E"/>
<path d="M92.7326 36.3363H85.5863V43.3152H92.7326V36.3363Z" fill="white"/>
<path d="M88.8631 36.6662H85.8552V42.723H88.8631V36.6662Z" fill="#1A237E"/>
<path d="M92.4587 36.9284H89.4508V42.9852H92.4587V36.9284Z" fill="#1A237E"/>
<path d="M91.7465 47.451H84.6003V54.4298H91.7465V47.451Z" fill="white"/>
<path d="M87.8771 47.7809H84.8692V53.8377H87.8771V47.7809Z" fill="#1A237E"/>
<path d="M91.4777 48.0431H88.4697V54.0999H91.4777V48.0431Z" fill="#1A237E"/>
</svg>
